grf
version=1
nRows=12
nColumns=37
inDegrees=no
endheader
time	ground_force_1_vx	ground_force_1_vy	ground_force_1_vz	ground_force_1_px	ground_force_1_py	ground_force_1_pz	ground_moment_1_mx	ground_moment_1_my	ground_moment_1_mz	ground_force_2_vx	ground_force_2_vy	ground_force_2_vz	ground_force_2_px	ground_force_2_py	ground_force_2_pz	ground_moment_2_mx	ground_moment_2_my	ground_moment_2_mz	ground_force_3_vx	ground_force_3_vy	ground_force_3_vz	ground_force_3_px	ground_force_3_py	ground_force_3_pz	ground_moment_3_mx	ground_moment_3_my	ground_moment_3_mz	ground_force_4_vx	ground_force_4_vy	ground_force_4_vz	ground_force_4_px	ground_force_4_py	ground_force_4_pz	ground_moment_4_mx	ground_moment_4_my	ground_moment_4_mz
      4.41000000	      0.00000000	     -0.00000000	      0.00000000	      0.00000000	      0.00000000	      0.00000000	      0.00000000	      0.00000000	      0.00000000	     -2.76552582	     31.12211800	   -162.27723694	   -289.86461703	  -1230.31405291	      0.00000000	      0.00000000	      0.00000000	    748.23731963	      7.09686093	    -42.69916565	   -201.84417725	   -337.73226678	   -700.51564706	      0.00000000	      0.00000000	     -0.00000000	  -2343.20303327	      0.00000000	     -0.00000000	      0.00000000	      0.00000000	      0.00000000	      0.00000000	      0.00000000	      0.00000000	      0.00000000
      4.42000000	      0.00000000	     -0.00000000	      0.00000000	      0.00000000	      0.00000000	      0.00000000	      0.00000000	      0.00000000	      0.00000000	     -1.92851520	     29.32390213	   -157.10484314	   -287.64452488	  -1232.27595131	      0.00000000	      0.00000000	      0.00000000	    456.50705549	      9.91697598	    -43.55771680	   -199.55847168	   -338.71388306	   -700.45465070	      0.00000000	      0.00000000	     -0.00000000	  -2168.20675893	      0.00000000	     -0.00000000	      0.00000000	      0.00000000	      0.00000000	      0.00000000	      0.00000000	      0.00000000	      0.00000000
      4.43000000	      0.00000000	     -0.00000000	      0.00000000	      0.00000000	      0.00000000	      0.00000000	      0.00000000	      0.00000000	      0.00000000	     -1.07052612	     28.47215843	   -152.96656799	   -287.66712968	  -1233.02118483	      0.00000000	      0.00000000	      0.00000000	    564.57852114	     11.07896607	    -45.17649127	   -200.12199402	   -341.83755769	   -700.27107077	      0.00000000	      0.00000000	     -0.00000000	  -2034.55679914	      0.00000000	     -0.00000000	      0.00000000	      0.00000000	      0.00000000	      0.00000000	      0.00000000	      0.00000000	      0.00000000
      4.44000000	      0.00000000	     -0.00000000	      0.00000000	      0.00000000	      0.00000000	      0.00000000	      0.00000000	      0.00000000	      0.00000000	     -0.82785088	     28.72864723	   -149.55068970	   -288.15952161	  -1234.81784712	      0.00000000	      0.00000000	      0.00000000	    691.43931437	     11.46848475	    -46.52084401	   -200.87492371	   -343.75870056	   -700.47247965	      0.00000000	      0.00000000	     -0.00000000	  -1846.91606689	      0.00000000	     -0.00000000	      0.00000000	      0.00000000	      0.00000000	      0.00000000	      0.00000000	      0.00000000	      0.00000000
      4.45000000	      0.00000000	     -0.00000000	      0.00000000	      0.00000000	      0.00000000	      0.00000000	      0.00000000	      0.00000000	      0.00000000	     -0.35410714	     30.08982849	   -148.39067078	   -288.05799815	  -1236.61465043	      0.00000000	      0.00000000	      0.00000000	    569.56256772	     11.41875250	    -47.62208226	   -202.71549988	   -344.33882596	   -701.67023079	      0.00000000	      0.00000000	     -0.00000000	  -1586.21602357	      0.00000000	     -0.00000000	      0.00000000	      0.00000000	      0.00000000	      0.00000000	      0.00000000	      0.00000000	      0.00000000
      4.46000000	      0.00000000	     -0.00000000	      0.00000000	      0.00000000	      0.00000000	      0.00000000	      0.00000000	      0.00000000	      0.00000000	      0.19192867	     31.08129883	   -152.01370239	   -289.54942970	  -1237.51026934	      0.00000000	      0.00000000	      0.00000000	    524.39981541	     11.94896495	    -46.53400092	   -207.19869995	   -346.76972072	   -702.05147460	      0.00000000	      0.00000000	     -0.00000000	  -1848.44603170	      0.00000000	     -0.00000000	      0.00000000	      0.00000000	      0.00000000	      0.00000000	      0.00000000	      0.00000000	      0.00000000
      4.47000000	      0.00000000	     -0.00000000	      0.00000000	      0.00000000	      0.00000000	      0.00000000	      0.00000000	      0.00000000	      0.00000000	      0.28071433	     32.48110580	   -158.62957764	   -291.87282661	  -1235.70199505	      0.00000000	      0.00000000	      0.00000000	    304.42821582	     11.13927167	    -45.25882388	   -215.72424316	   -347.70038008	   -706.13093403	      0.00000000	      0.00000000	     -0.00000000	  -1816.20318454	      0.00000000	     -0.00000000	      0.00000000	      0.00000000	      0.00000000	      0.00000000	      0.00000000	      0.00000000	      0.00000000
      4.48000000	      0.00000000	     -0.00000000	      0.00000000	      0.00000000	      0.00000000	      0.00000000	      0.00000000	      0.00000000	      0.00000000	      1.58026445	     33.56403351	   -171.99862671	   -297.18236687	  -1233.74690630	      0.00000000	      0.00000000	      0.00000000	    618.93033414	     10.60730360	    -44.14817093	   -227.84648132	   -349.47461012	   -705.96939541	      0.00000000	      0.00000000	     -0.00000000	  -2080.68675810	      0.00000000	     -0.00000000	      0.00000000	      0.00000000	      0.00000000	      0.00000000	      0.00000000	      0.00000000	      0.00000000
      4.49000000	      0.00000000	     -0.00000000	      0.00000000	      0.00000000	      0.00000000	      0.00000000	      0.00000000	      0.00000000	      0.00000000	      2.39647293	     34.48002243	   -186.57568359	   -301.09323362	  -1232.58415313	      0.00000000	      0.00000000	      0.00000000	    704.20104349	      9.60626507	    -43.60552258	   -242.95718384	   -351.91121240	   -709.37800419	      0.00000000	      0.00000000	     -0.00000000	  -2267.73400513	      0.00000000	     -0.00000000	      0.00000000	      0.00000000	      0.00000000	      0.00000000	      0.00000000	      0.00000000	      0.00000000
      4.50000000	      0.00000000	     -0.00000000	      0.00000000	      0.00000000	      0.00000000	      0.00000000	      0.00000000	      0.00000000	      0.00000000	      2.33127856	     35.58880997	   -204.53791809	   -304.31402720	  -1230.68778412	      0.00000000	      0.00000000	      0.00000000	    888.64336518	      8.66801833	    -43.81930961	   -258.71337891	   -352.65721114	   -710.61885793	      0.00000000	      0.00000000	     -0.00000000	  -2537.11708204	      0.00000000	     -0.00000000	      0.00000000	      0.00000000	      0.00000000	      0.00000000	      0.00000000	      0.00000000	      0.00000000
      4.51000000	      0.00000000	     -0.00000000	      0.00000000	      0.00000000	      0.00000000	      0.00000000	      0.00000000	      0.00000000	      0.00000000	      1.89936459	     36.89998627	   -223.65299988	   -307.86858173	  -1228.46065990	      0.00000000	      0.00000000	      0.00000000	   1112.97109862	      7.13401597	    -45.05538972	   -273.43051147	   -353.64548247	   -710.78857718	      0.00000000	      0.00000000	     -0.00000000	  -2474.35188661	      0.00000000	     -0.00000000	      0.00000000	      0.00000000	      0.00000000	      0.00000000	      0.00000000	      0.00000000	      0.00000000
      4.52000000	      0.00000000	     -0.00000000	      0.00000000	      0.00000000	      0.00000000	      0.00000000	      0.00000000	      0.00000000	      0.00000000	      2.61319709	     38.87178040	   -244.69367981	   -312.03399424	  -1227.20747675	      0.00000000	      0.00000000	      0.00000000	   1456.97015801	      7.55134955	    -45.76152453	   -286.14331055	   -354.51569394	   -713.04121368	      0.00000000	      0.00000000	     -0.00000000	  -2347.82305996	      0.00000000	     -0.00000000	      0.00000000	      0.00000000	      0.00000000	      0.00000000	      0.00000000	      0.00000000	      0.00000000
